<?xml version="1.0" standalone="no"?>
<!DOCTYPE svg PUBLIC "-//W3C//DTD SVG 20010904//EN"
 "http://www.w3.org/TR/2001/REC-SVG-20010904/DTD/svg10.dtd">
<svg version="1.0" xmlns="http://www.w3.org/2000/svg"
 width="1056.000000pt" height="1056.000000pt" viewBox="0 0 1056.000000 1056.000000"
 preserveAspectRatio="xMidYMid meet">
<metadata>
Created by potrace 1.14, written by Peter Selinger 2001-2017
</metadata>
<g transform="translate(0.000000,1056.000000) scale(0.100000,-0.100000)"
fill="#000000" stroke="none">
<path d="M160 5290 l0 -5120 5120 0 5120 0 0 5120 0 5120 -5120 0 -5120 0 0
-5120z m9890 0 l0 -4770 -4770 0 -4770 0 0 4770 0 4770 4770 0 4770 0 0 -4770z"/>
<path d="M2988 7253 l-66 -4 -20 -57 c-51 -149 -918 -2708 -1098 -3241 -112
-333 -204 -608 -204 -613 0 -4 172 -8 383 -8 l382 0 139 445 139 445 743 0
743 0 29 -92 c16 -51 78 -250 137 -443 60 -192 110 -351 111 -353 3 -4 786 -3
790 1 2 1 -172 518 -385 1147 -213 630 -511 1511 -662 1957 l-274 813 -375 0
c-206 0 -391 2 -410 4 -19 1 -65 1 -102 -1z m430 -678 c34 -132 88 -323 188
-660 59 -196 111 -365 285 -928 27 -87 49 -160 49 -163 0 -2 -247 -4 -550 -4
-302 0 -550 3 -550 7 0 6 128 422 285 928 99 320 228 779 246 879 7 36 13 65
15 63 1 -1 16 -56 32 -122z"/>
<path d="M8407 7253 l-179 -3 5 -1273 c4 -1145 8 -1348 31 -1662 l6 -70 -37
80 c-141 307 -431 846 -820 1520 -143 248 -383 665 -534 927 l-274 477 -417 1
-418 0 0 -1960 0 -1960 365 0 365 0 0 1033 c0 568 -5 1138 -10 1267 -11 241
-34 586 -46 675 -4 28 -5 48 -2 45 3 -3 29 -59 58 -125 69 -158 242 -499 381
-755 103 -188 342 -600 999 -1722 l244 -417 70 -3 c39 -2 230 -2 424 0 l352 3
0 1960 0 1959 -157 0 c-87 0 -174 2 -193 3 -19 2 -115 2 -213 0z"/>
</g>
</svg>
